<svg width="428" height="467" viewBox="0 0 428 467" fill="none" xmlns="http://www.w3.org/2000/svg">
<path d="M413.848 180.828C409.222 118.521 406.908 87.3669 396.141 67.2109C365.312 9.49814 275.679 -4.22829 219.068 1.03545C143.281 8.08047 56.5807 55.671 18.4167 147.556C-16.2463 231.014 -0.263046 325.483 51.9665 387.28C147.712 500.564 345.212 480.338 393.458 406.004C412.712 376.337 414.1 328.954 416.14 259.349C417.12 225.844 415.207 199.143 413.848 180.828Z" fill="#F4F7FA"/>
<path d="M377.531 38.1199C372.631 33.6917 365.199 31.28 358.916 30.793C314.378 27.3456 307.878 129.036 314.705 151.762C321.532 174.489 317.108 181.951 282.032 193.841C246.955 205.731 263.783 228.624 268.058 242.012C272.333 255.4 280.799 266.709 255.229 280.012C229.659 293.315 238.545 301.557 238.545 301.557C238.545 301.557 285.701 354.247 283.096 337.378C280.491 320.509 285.211 295.038 327.49 293.101C345.701 292.267 373.587 282.779 379.762 261.479C381.2 256.519 382.2 248.943 381.107 243.81C379.589 236.688 375.311 231.077 372.935 224.374C367.399 208.755 381.286 197.316 389.277 186.876C393.45 181.425 397.62 175.836 400.814 169.622C407.449 156.719 404.964 142.883 397.741 130.989C394.276 125.287 389.464 119.236 387.952 112.433C386.329 105.126 387.744 95.1421 388.129 87.6251C388.431 81.7293 388.946 75.8567 388.642 69.9459C388.08 58.9547 385.723 45.5235 377.531 38.1199Z" fill="url(#paint0_linear_353_782)"/>
<g opacity="0.8">
<g opacity="0.8">
<path opacity="0.8" d="M234.837 331.13C234.531 331.25 234.185 331.109 234.031 330.787C233.863 330.435 233.986 329.999 234.308 329.816C234.507 329.703 254.359 318.296 276.505 299.509C296.911 282.199 323.496 254.904 334.259 223.173C343.249 196.673 351.447 152.862 356.753 102.976C361.51 58.2427 362.261 25.1591 360.24 19.0181C360.116 18.6445 360.295 18.2325 360.637 18.0974C360.979 17.9623 361.356 18.1575 361.48 18.5311C363.845 25.7162 362.344 62.881 358.063 103.143C352.746 153.139 344.521 197.07 335.495 223.674C324.621 255.73 297.844 283.234 277.296 300.662C255.059 319.522 235.119 330.977 234.921 331.09C234.892 331.105 234.864 331.119 234.837 331.13Z" fill="white"/>
</g>
<g opacity="0.8">
<path opacity="0.8" d="M356.681 111.648C356.34 111.781 355.994 111.678 355.868 111.306C355.703 110.814 339.1 62.0208 317.691 51.0046C317.361 50.8361 317.228 50.4292 317.382 50.0689C317.538 49.7087 317.933 49.5669 318.262 49.7354C340.161 61.0034 356.42 108.772 357.102 110.805C357.227 111.179 357.026 111.513 356.684 111.646C356.682 111.648 356.681 111.648 356.681 111.648Z" fill="white"/>
</g>
<g opacity="0.8">
<path opacity="0.8" d="M348.583 168.232C348.33 168.332 348.033 168.254 347.852 168.012C347.621 167.705 347.661 167.252 347.942 167C348.064 166.89 360.288 155.937 375.37 146.745C395.75 134.326 411.368 130.859 421.79 136.441C422.117 136.616 422.251 137.047 422.091 137.404C421.931 137.761 421.537 137.907 421.21 137.732C397.229 124.89 349.26 167.675 348.779 168.109C348.719 168.164 348.652 168.206 348.583 168.232Z" fill="white"/>
</g>
<g opacity="0.8">
<path opacity="0.8" d="M295.364 283.894C295.297 283.92 295.226 283.934 295.152 283.935C294.788 283.942 294.489 283.625 294.483 283.226C294.48 283.018 294.141 262.083 290.13 240.024C286.451 219.8 278.857 194.467 263.564 188.629C263.22 188.497 263.039 188.087 263.159 187.713C263.278 187.338 263.655 187.14 263.997 187.271C276.75 192.138 285.977 209.799 291.425 239.764C295.457 261.948 295.796 282.995 295.799 283.205C295.805 283.522 295.622 283.792 295.364 283.894Z" fill="white"/>
</g>
<g opacity="0.8">
<path opacity="0.8" d="M322.578 250.071C322.31 250.176 322.002 250.082 321.825 249.821C321.608 249.5 321.671 249.05 321.962 248.815C324.083 247.102 374.109 206.928 393.618 210.764C393.977 210.834 394.214 211.21 394.15 211.6C394.085 211.992 393.743 212.252 393.385 212.18C374.428 208.453 323.26 249.555 322.746 249.971C322.694 250.016 322.636 250.047 322.578 250.071Z" fill="white"/>
</g>
</g>
<path d="M416.62 187.899C413.381 181.921 407.133 176.904 401.372 174.124C360.529 154.418 322.913 247.708 322.296 271.617C321.679 295.526 315.205 300.913 278.516 299.136C241.825 297.36 250.568 325.123 250.445 339.302C250.321 353.48 254.784 367.252 226.601 370.319C198.418 373.386 204.226 384.425 204.226 384.425C204.226 384.425 232.279 451.436 235.054 434.599C237.828 417.762 250.159 395.538 290.543 409.345C307.937 415.291 337.119 416.67 349.528 398.909C352.418 394.773 355.705 388.015 356.266 382.779C357.043 375.517 354.756 368.656 354.595 361.471C354.223 344.726 370.835 339.095 381.589 332.225C387.203 328.639 392.859 324.92 397.79 320.253C408.03 310.565 409.979 296.626 406.866 282.765C405.373 276.118 402.718 268.645 403.403 261.685C404.139 254.209 408.564 245.336 411.254 238.405C413.364 232.969 415.668 227.632 417.214 221.958C420.092 211.402 422.036 197.893 416.62 187.899Z" fill="url(#paint1_linear_353_782)"/>
<g opacity="0.8">
<g opacity="0.8">
<path opacity="0.8" d="M191.576 410.881C191.252 410.881 190.97 410.619 190.924 410.259C190.875 409.865 191.127 409.501 191.487 409.448C191.709 409.415 213.923 406.019 240.582 396.525C265.146 387.779 298.618 371.92 318.576 346.039C335.245 324.424 356.531 286.229 376.976 241.247C395.309 200.911 406.264 170.056 406.264 163.53C406.264 163.133 406.559 162.811 406.922 162.811C407.286 162.811 407.58 163.133 407.58 163.53C407.58 171.165 394.655 205.583 378.154 241.887C357.664 286.967 336.315 325.268 319.582 346.967C299.42 373.112 265.702 389.097 240.967 397.901C214.199 407.43 191.887 410.839 191.664 410.872C191.637 410.879 191.606 410.881 191.576 410.881Z" fill="white"/>
</g>
<g opacity="0.8">
<path opacity="0.8" d="M374.223 249.529C373.861 249.529 373.567 249.229 373.565 248.834C373.562 248.31 373.054 196.221 356.319 177.942C356.061 177.662 356.061 177.21 356.319 176.929C356.576 176.649 356.993 176.651 357.251 176.931C374.368 195.629 374.869 246.659 374.883 248.824C374.886 249.221 374.593 249.529 374.228 249.529C374.225 249.529 374.223 249.529 374.223 249.529Z" fill="white"/>
</g>
<g opacity="0.8">
<path opacity="0.8" d="M349.076 299.636C348.805 299.636 348.552 299.453 348.456 299.159C348.333 298.786 348.511 298.374 348.854 298.239C349.002 298.18 363.898 292.391 380.94 289.317C403.963 285.163 419.734 287.675 427.815 296.779C428.068 297.065 428.06 297.52 427.799 297.797C427.538 298.074 427.121 298.065 426.868 297.78C408.28 276.832 349.886 299.363 349.298 299.593C349.224 299.623 349.149 299.636 349.076 299.636Z" fill="white"/>
</g>
<g opacity="0.8">
<path opacity="0.8" d="M263.166 388.804C263.096 388.804 263.024 388.79 262.953 388.765C262.609 388.637 262.424 388.228 262.544 387.851C262.605 387.653 268.772 367.829 271.83 345.588C274.633 325.197 275.334 298.551 262.751 287.405C262.469 287.155 262.426 286.701 262.655 286.392C262.884 286.084 263.299 286.036 263.582 286.287C274.074 295.581 277.287 315.612 273.129 345.82C270.053 368.186 263.852 388.117 263.789 388.317C263.696 388.615 263.44 388.804 263.166 388.804Z" fill="white"/>
</g>
<g opacity="0.8">
<path opacity="0.8" d="M299.251 367.035C298.967 367.035 298.706 366.833 298.62 366.523C298.515 366.142 298.713 365.74 299.061 365.627C301.587 364.8 361.107 345.486 378.277 356.307C378.591 356.506 378.7 356.946 378.518 357.289C378.336 357.633 377.933 357.751 377.619 357.553C360.935 347.039 300.052 366.805 299.44 367.005C299.377 367.025 299.313 367.035 299.251 367.035Z" fill="white"/>
</g>
</g>
<path d="M279.708 19.8406L279.237 23.5198C277.675 23.5982 276.139 23.8184 274.644 24.1853L273.371 20.7529C273.024 19.8172 272.043 19.3719 271.18 19.7605L265.779 22.1906C264.915 22.5792 264.494 23.6566 264.839 24.5939L266.118 28.0697C264.81 28.9804 263.573 30.0111 262.422 31.1519L259.71 28.8536C258.977 28.2332 257.915 28.3866 257.336 29.1972L253.708 34.2675C253.126 35.0797 253.25 36.2439 253.983 36.866L256.705 39.1777C255.98 40.6654 255.371 42.2365 254.879 43.876L251.424 43.3806C250.496 43.2472 249.631 43.9661 249.494 44.9868L248.625 51.3813C248.486 52.4054 249.127 53.3461 250.057 53.4795L253.523 53.9765C253.565 55.7027 253.737 57.4006 254.044 59.0535L250.792 60.5345C249.915 60.9331 249.485 62.0356 249.83 62.9946L251.996 69.0089C252.343 69.9729 253.337 70.4282 254.216 70.0263L257.47 68.5386C258.289 69.9929 259.222 71.3639 260.257 72.6381L258.089 75.7137C257.502 76.5459 257.628 77.7368 258.37 78.3739L263.017 82.3567C263.761 82.9938 264.84 82.8337 265.425 81.9981L267.567 78.9426C268.935 79.7382 270.383 80.4003 271.893 80.929L271.406 84.7418C271.273 85.7858 271.925 86.7415 272.863 86.8749L278.73 87.7155C279.669 87.8506 280.535 87.1118 280.666 86.0677L281.14 82.2833C282.735 82.2083 284.303 81.9831 285.829 81.6078L287.116 85.1037C287.473 86.0744 288.473 86.533 289.35 86.1277L294.822 83.5943C295.697 83.189 296.114 82.0765 295.755 81.1092L294.468 77.6384C295.804 76.696 297.062 75.6269 298.228 74.4444L300.904 76.716C301.652 77.3515 302.724 77.1914 303.298 76.3591L306.881 71.1688C307.454 70.3398 307.312 69.1573 306.565 68.5252L303.915 66.2803C304.637 64.7509 305.237 63.1347 305.713 61.4518L309.026 61.9272C309.956 62.0606 310.808 61.3351 310.929 60.3077L311.682 53.8965C311.802 52.8741 311.147 51.9367 310.219 51.8033L306.915 51.3296C306.846 49.5817 306.645 47.8672 306.306 46.201L309.37 44.8C310.231 44.4064 310.639 43.3189 310.282 42.3716L308.043 36.4607C307.686 35.5167 306.7 35.0697 305.838 35.4617L302.756 36.866C301.916 35.4266 300.966 34.069 299.911 32.8131L301.948 29.9094C302.514 29.1005 302.375 27.9447 301.64 27.3259L297.036 23.4615C296.3 22.8444 295.245 22.9961 294.677 23.8017L292.628 26.7088C291.269 25.9382 289.834 25.2978 288.336 24.7908L288.792 21.1398C288.918 20.1358 288.275 19.2134 287.354 19.0817L281.602 18.2578C280.686 18.1293 279.836 18.8348 279.708 19.8406ZM259.429 49.6434C261.092 37.0078 271.708 28.1498 283.152 29.7893C294.596 31.4288 302.633 42.9603 301.096 55.6127C299.549 68.3434 288.91 77.3748 277.341 75.7187C265.772 74.0608 257.757 62.3558 259.429 49.6434Z" fill="#D8DEE8"/>
<path d="M191.513 17.8455L190.786 23.5346C188.372 23.6546 185.996 23.9949 183.684 24.562L181.716 19.2549C181.179 17.8072 179.663 17.12 178.33 17.7204L169.979 21.4781C168.643 22.0802 167.991 23.743 168.526 25.1957L170.504 30.5696C168.481 31.9772 166.568 33.57 164.789 35.3363L160.591 31.7821C159.459 30.8231 157.815 31.0616 156.92 32.3125L151.31 40.1514C150.411 41.4073 150.602 43.2069 151.735 44.1693L155.944 47.7451C154.824 50.0451 153.88 52.4752 153.12 55.0086L147.777 54.2431C146.343 54.0379 145.007 55.1487 144.792 56.7265L143.45 66.6152C143.235 68.1997 144.227 69.6524 145.665 69.8575L151.023 70.6247C151.087 73.2933 151.353 75.9202 151.829 78.4753L146.801 80.7653C145.445 81.3824 144.78 83.0853 145.314 84.5697L148.664 93.868C149.2 95.3573 150.738 96.0628 152.097 95.4407L157.128 93.1408C158.392 95.389 159.835 97.5089 161.436 99.4786L158.085 104.234C157.178 105.521 157.372 107.363 158.52 108.347L165.707 114.504C166.857 115.49 168.526 115.241 169.431 113.951L172.743 109.227C174.858 110.458 177.097 111.482 179.432 112.299L178.678 118.195C178.472 119.81 179.479 121.287 180.931 121.494L190.004 122.794C191.455 123.002 192.795 121.86 192.997 120.245L193.73 114.394C196.197 114.279 198.622 113.931 200.979 113.35L202.969 118.756C203.521 120.257 205.068 120.966 206.423 120.338L214.884 116.422C216.236 115.797 216.882 114.076 216.326 112.578L214.335 107.211C216.401 105.755 218.346 104.1 220.151 102.272L224.285 105.785C225.441 106.767 227.098 106.519 227.986 105.234L233.527 97.2103C234.412 95.9294 234.193 94.0998 233.039 93.1224L228.941 89.6533C230.058 87.2866 230.985 84.7882 231.721 82.188L236.845 82.9218C238.284 83.1286 239.601 82.0062 239.788 80.4184L240.951 70.5047C241.137 68.9219 240.124 67.4742 238.69 67.269L233.581 66.5368C233.476 63.8349 233.164 61.183 232.639 58.6079L237.378 56.4413C238.711 55.8325 239.342 54.1514 238.786 52.687L235.325 43.5471C234.772 42.0878 233.247 41.3973 231.917 42.0027L227.151 44.1726C225.853 41.946 224.383 39.8478 222.754 37.9081L225.902 33.4183C226.779 32.169 226.565 30.3811 225.424 29.4238L218.306 23.4495C217.169 22.4955 215.536 22.7307 214.658 23.9765L211.489 28.4714C209.386 27.2806 207.168 26.2899 204.853 25.5043L205.56 19.8586C205.754 18.3058 204.758 16.8815 203.337 16.678L194.443 15.4038C193.024 15.2003 191.711 16.2927 191.513 17.8455ZM160.158 63.9266C162.728 44.3894 179.143 30.693 196.837 33.2281C214.53 35.7633 226.957 53.5926 224.582 73.1565C222.19 92.8389 205.742 106.805 187.854 104.242C169.965 101.68 157.572 83.5806 160.158 63.9266Z" fill="#D8DEE8"/>
<path d="M183.003 72.9347L144.105 426.109C143.521 431.405 146.862 436.152 151.543 436.659L313.563 456.089C323.487 456.763 328.921 451.224 329.535 445.593L370.374 70.1094C370.983 64.5104 366.114 59.4385 356.147 59.4385L192.654 63.1995C187.92 63.2879 183.583 67.6677 183.003 72.9347Z" fill="url(#paint2_linear_353_782)"/>
<path d="M175.711 72.3282L136.599 427.269C136.012 432.591 139.365 437.363 144.062 437.873L312.03 456.141C317.296 456.713 322.122 452.552 322.737 446.893L363.806 69.4695C364.418 63.8405 360.55 59.3172 355.226 59.4156L185.396 62.5462C180.647 62.6313 176.294 67.0344 175.711 72.3282Z" fill="url(#paint3_linear_353_782)"/>
<path d="M178.899 91.9049L142.646 421.006C142.098 425.978 145.239 430.427 149.635 430.894L307.603 447.668C312.498 448.188 316.984 444.304 317.558 439.035L355.512 90.3838C356.083 85.1434 352.491 80.9021 347.546 80.9604L187.956 82.8168C183.514 82.8668 179.444 86.958 178.899 91.9049Z" fill="#D8DEE8"/>
<path d="M263.61 72.0824C263.402 73.9721 264.643 75.4848 266.384 75.4598C268.126 75.4365 269.708 73.882 269.916 71.989C270.123 70.096 268.877 68.5832 267.135 68.6116C265.393 68.64 263.816 70.1944 263.61 72.0824Z" fill="url(#paint4_linear_353_782)"/>
<path d="M206.21 312.819C238.549 247.508 286.86 227.957 301.405 160.646C309.267 124.261 303.911 89.4367 294.889 60.5261L355.229 59.4137C360.553 59.3153 364.421 63.8402 363.808 69.4675L322.74 446.891C322.125 452.552 317.298 456.713 312.032 456.139L179.993 441.779C179.014 383.257 191.793 341.931 206.21 312.819Z" fill="white"/>
<path d="M16.2413 109.783C16.2413 75.0784 43.9555 46.95 77.2138 46.9534C109.489 46.9567 134.96 73.6057 134.96 106.474C134.96 139.342 109.489 167.411 77.2138 169.214C43.954 171.072 16.2413 144.488 16.2413 109.783Z" fill="url(#paint5_linear_353_782)"/>
<path d="M19.8264 107.016C19.8264 72.3112 46.739 44.1828 79.0338 44.1862C110.374 44.1895 135.11 70.8385 135.11 103.707C135.11 136.575 110.374 164.644 79.0338 166.446C46.7375 168.304 19.8264 141.719 19.8264 107.016Z" fill="url(#paint6_linear_353_782)"/>
<g opacity="0.5">
<path opacity="0.5" d="M29.0397 106.751C29.0397 77.5931 51.6495 53.9596 78.7835 53.9646C105.114 53.9679 125.897 76.3572 125.897 103.972C125.897 131.587 105.116 155.168 78.7835 156.683C51.6495 158.244 29.0397 135.908 29.0397 106.751Z" fill="white"/>
</g>
<path opacity="0.5" d="M76.9161 58.4445C103.247 58.4478 124.029 80.8371 124.029 108.452C124.029 115.018 122.843 121.351 120.698 127.218C124.02 120.153 125.898 112.246 125.898 103.972C125.898 76.3572 105.117 53.9679 78.785 53.9646C57.8577 53.9629 39.6331 68.0263 32.385 87.8337C40.5919 70.4196 57.6043 58.4428 76.9161 58.4445Z" fill="white"/>
<path d="M56.2858 99.614V125.062C56.2858 132.419 61.952 138.223 68.9206 138.025L86.2002 137.533C93.0848 137.336 98.6487 131.277 98.6487 123.996V98.8168L56.2858 99.614ZM72.1988 125.923L75.4098 115.294C74.0341 114.518 73.1027 112.99 73.1027 111.211C73.1027 108.599 75.109 106.439 77.5795 106.389C80.0469 106.337 82.0456 108.409 82.0456 111.015C82.0456 112.792 81.1172 114.358 79.7461 115.195L82.9449 125.649L72.1988 125.923Z" fill="white"/>
<path d="M93.7369 96.6103C91.9031 96.6436 90.416 95.0942 90.416 93.1478C90.416 85.6675 84.6673 79.6632 77.5781 79.7633C70.4644 79.8634 64.6577 86.0694 64.6577 93.5965C64.6577 95.5545 63.1507 97.169 61.2894 97.2041C59.4266 97.2374 57.915 95.6763 57.915 93.7149C57.915 82.2584 66.7602 72.8284 77.5796 72.6966C88.3409 72.5648 97.0517 81.688 97.0517 93.0344C97.0517 94.9758 95.5691 96.5769 93.7369 96.6103Z" fill="white"/>
<path d="M133.759 241.758C133.759 241.758 132.583 236.945 133.417 235.714C134.249 234.483 139.341 229.563 138.853 231.167C138.362 232.772 137.628 233.841 137.628 233.841C137.628 233.841 140.37 235.232 138.607 237.317C136.845 239.403 136.255 239.884 136.158 241.757C136.061 243.63 134.935 244.272 133.759 241.758Z" fill="url(#paint7_linear_353_782)"/>
<path d="M84.8457 449.534C84.8457 449.534 84.2228 453.697 84.3022 455.178C84.3816 456.659 99.4334 457.417 99.5846 456.307C99.7357 455.198 97.0973 453.432 95.2391 452.81C93.3809 452.186 87.9422 450.525 87.9422 450.525L84.8457 449.534Z" fill="url(#paint8_linear_353_782)"/>
<path d="M88.4987 445.385L88.0193 450.562C88.0193 450.562 86.271 451.824 84.7304 450.85L83.9594 445.216L88.4987 445.385Z" fill="url(#paint9_linear_353_782)"/>
<path d="M57.9898 456.283C57.9898 456.283 57.3668 460.446 57.4462 461.927C57.5256 463.408 72.5775 464.165 72.7286 463.056C72.8813 461.947 70.2414 460.18 68.3832 459.558C66.525 458.936 61.0863 457.273 61.0863 457.273L57.9898 456.283Z" fill="url(#paint10_linear_353_782)"/>
<path d="M61.6441 452.133L61.1647 457.31C61.1647 457.31 59.4164 458.572 57.8758 457.598L57.1047 451.964L61.6441 452.133Z" fill="url(#paint11_linear_353_782)"/>
<path d="M85.7682 310.245C87.5073 314.098 89.248 317.951 90.9871 321.803C92.3857 343.791 93.0819 367.701 92.6346 393.271C92.3017 412.294 91.3718 430.316 90.0343 447.231C87.6753 447.113 85.3163 446.994 82.9573 446.876C79.5463 439.48 75.5199 428.278 75.1489 414.448C74.7626 400.022 78.766 398.106 78.5126 384.295C78.1828 366.392 71.3103 361.615 67.6489 340.081C66.2488 331.846 65.3067 321.09 66.4259 308.04C72.8738 308.776 79.3203 309.511 85.7682 310.245Z" fill="url(#paint12_linear_353_782)"/>
<path opacity="0.3" d="M66.427 308.04C69.9083 308.437 73.3896 308.834 76.8724 309.231C83.1401 321.145 84.8899 333.543 83.7891 339.029C82.2332 346.79 78.1168 349.275 78.3443 357.065C78.5687 364.774 82.7264 366.774 85.3633 375.859C87.1894 382.15 86.7069 387.934 85.6686 399.245C83.5768 422.03 78.5397 428.998 82.7584 436.468C83.957 438.592 86.1175 441.118 90.35 443.048C90.2462 444.446 90.1439 445.847 90.0355 447.229C87.6765 447.113 85.3175 446.993 82.9584 446.876C79.5474 439.481 75.5211 428.278 75.15 414.448C74.7637 400.022 78.7672 398.106 78.5137 384.295C78.1839 366.392 71.3115 361.617 67.6501 340.083C66.2499 331.847 65.3063 321.091 66.427 308.04Z" fill="url(#paint13_linear_353_782)"/>
<path d="M76.4065 317.182C73.1405 336.636 70.2563 357.455 68.0057 379.536C65.2879 406.197 63.8373 431.331 63.2678 454.666C60.6782 454.746 58.0902 454.826 55.5006 454.906C45.2981 432.859 44.6751 417.912 46.1455 408.18C46.712 404.431 48.2526 397.077 48.6038 386.086C48.8481 378.425 48.4007 372.595 47.8419 365.586C46.6173 350.22 45.1301 346.866 44.9164 335.113C44.7148 324.082 44.6736 318.501 47.5563 315.244C55.151 306.659 74.9087 316.421 76.4065 317.182Z" fill="url(#paint14_linear_353_782)"/>
<path d="M132.405 241.016C134.127 240.884 135.848 240.754 137.57 240.623C141.632 258.554 138.719 275.946 129.551 282.342C115.228 292.336 88.6067 273.508 82.8382 253.005C80.3067 244.005 80.8823 231.019 85.9439 228.496C87.3486 227.795 89.529 227.687 94.2516 230.582C108.355 239.232 108.726 255.58 115.896 256.964C119.082 257.581 124.23 255.361 132.405 241.016Z" fill="url(#paint15_linear_353_782)"/>
<path d="M92.9689 325.748C95.45 321.251 92.3337 316.915 91.6252 308.397C90.8221 298.742 94.227 297.134 97.5938 281.134C99.8337 270.494 101.982 260.278 99.4168 248.319C98.1877 242.589 96.102 232.868 88.7364 228.173C84.936 225.75 79.7462 225.994 69.5238 226.577C56.8813 227.299 50.5616 227.66 45.8467 230.372C45.1565 230.769 30.8162 239.29 29.8283 253.18C28.8236 267.316 42.9166 269.216 44.7962 288.068C45.6405 296.53 44.1366 309.546 43.1609 317.987C42.2249 326.093 41.5791 328.168 43.0449 330.623C46.575 336.539 57.3806 334.853 78.9919 331.482C87.4691 330.158 91.1168 329.104 92.9689 325.748Z" fill="url(#paint16_linear_353_782)"/>
<path d="M60.0855 285.034C59.1709 288.708 55.8851 291.452 53.5978 300.39C53.1046 302.32 49.5852 316.061 54.149 319.444C56.7844 321.397 59.151 317.696 65.5486 317.212C76.6337 316.375 81.9151 326.552 89.1571 323.772C90.4137 323.288 92.0718 322.261 93.7285 319.899C94.0583 322.027 94.0018 323.877 92.9696 325.75C91.1191 329.106 87.4699 330.16 78.9927 331.482C57.3814 334.853 46.5757 336.539 43.0456 330.623C41.5814 328.17 42.2257 326.093 43.1617 317.988C44.1373 309.545 45.6413 296.529 44.7969 288.068C42.9174 269.216 28.8228 267.317 29.8291 253.18C30.0978 249.4 31.3697 246.036 33.0721 243.106C50.9502 251.008 62.9575 273.488 60.0855 285.034Z" fill="url(#paint17_linear_353_782)"/>
<path d="M37.5056 312.84L41.0831 315.335C41.7259 314.525 43.2131 312.89 45.5339 312.333C48.1494 311.705 51.1528 312.607 51.2215 313.518C51.278 314.248 49.4488 314.985 49.1663 315.099C46.8836 316.019 45.1903 315.254 44.2681 316.256C43.9414 316.61 43.5352 317.27 42.5992 317.881C42.3534 318.041 42.0969 318.183 41.961 318.241C40.4372 318.888 37.8247 315.991 37.6003 315.737L37.5056 312.84Z" fill="url(#paint18_linear_353_782)"/>
<path d="M48.0729 261.594C50.6609 254.824 52.4535 244.458 48.366 229.066C21.4351 240.657 7.70096 268.137 13.0633 289.919C17.4836 307.877 33.5676 316.623 37.1558 318.464C37.991 316.388 38.8262 314.313 39.6598 312.238C35.5022 307.181 30.8162 299.702 31.4789 291.168C32.3981 279.336 42.8342 275.298 48.0729 261.594Z" fill="url(#paint19_linear_353_782)"/>
<path d="M68.8608 212.651C68.8608 212.651 68.6485 217.796 67.1858 221.65C65.8635 225.133 58.9132 227.323 57.5039 228.1C56.0946 228.877 60.1439 231.15 64.2099 231.596C68.276 232.043 79.8863 231.034 81.9796 229.351C84.073 227.668 80.297 227.795 77.396 226.63C74.4934 225.466 72.8154 219.267 73.3284 216.453C73.8414 213.638 68.8608 212.651 68.8608 212.651Z" fill="url(#paint20_linear_353_782)"/>
<path d="M75.2918 210.785C77.402 208.52 77.6966 208.256 77.9257 207.474C78.8479 204.333 76.6172 200.03 73.6917 198.971C73.539 198.916 71.577 198.231 70.8288 199.16C70.1921 199.948 71.1281 201.039 70.6837 202.562C70.2669 203.986 69.137 204.093 67.0406 205.961C65.3138 207.499 64.2419 208.456 63.9945 209.802C63.4846 212.576 66.5581 216.595 69.279 216.487C70.2577 216.447 70.525 215.901 75.2918 210.785Z" fill="url(#paint21_linear_353_782)"/>
<path d="M69.5467 216.915C69.5467 216.915 71.7897 219.689 75.2053 218.772C78.2636 217.951 77.4833 210.282 75.245 209.058C74.4983 208.649 73.1409 208.683 72.121 209.22C71.5179 209.537 71.3499 209.867 70.3559 210.364C69.4398 210.823 69.1482 210.759 68.9023 211.083C68.5939 211.486 68.4611 212.357 69.4276 214.455C68.7313 213.916 67.9816 213.803 67.5221 214.16C67.4488 214.217 67.2625 214.417 67.1816 214.679C66.8899 215.628 67.7938 216.593 69.5467 216.915Z" fill="url(#paint22_linear_353_782)"/>
<path d="M325.337 113.083L326.126 117.738L309.876 117.78L168.854 118.145C165.226 118.155 161.89 121.431 161.392 125.462L127.728 371.225C127.227 375.293 133.023 381.502 136.629 381.806L199.193 387.058V386.975L292.778 394.817C292.779 394.817 292.781 394.817 292.782 394.817L293.008 394.92C297.004 395.257 300.67 392.09 301.189 387.794C301.189 387.792 301.189 387.812 301.191 387.81L332.718 125.415C333.231 121.159 329.355 113.071 325.337 113.083Z" fill="url(#paint23_linear_353_782)"/>
<path d="M298.001 382.681C297.485 386.979 293.82 390.191 289.824 389.856L133.284 376.726C129.679 376.424 127.17 372.882 127.671 368.814L158.274 120.437C158.77 116.406 162.107 113.13 165.731 113.119L323.156 112.645C327.173 112.633 330.022 116.074 329.512 120.331L298.001 382.681Z" fill="url(#paint24_linear_353_782)"/>
<path d="M300.081 246.087C299.824 248.215 298.004 249.803 296.016 249.723L158.242 244.231C156.424 244.159 155.144 242.523 155.395 240.49L158.103 218.559C158.354 216.528 160.013 215.154 161.833 215.209L299.728 219.392C301.719 219.452 303.128 220.988 302.873 223.114L300.081 246.087Z" fill="white"/>
<path d="M294.746 290.648C294.489 292.781 292.668 294.6 290.68 294.492L153.01 287.063C151.193 286.965 149.928 285.065 150.179 283.031L152.909 260.676C153.159 258.643 154.834 256.9 156.653 256.98L294.407 263.05C296.395 263.138 297.801 265.103 297.544 267.233L294.746 290.648Z" fill="white"/>
<path opacity="0.1" d="M302.884 223.026C302.558 222.911 302.206 222.848 301.832 222.836L163.935 218.655C162.116 218.598 160.455 219.976 160.208 222.002L157.494 243.933C157.488 243.989 157.484 244.043 157.479 244.099C156.081 243.669 155.181 242.221 155.392 240.487L158.105 218.556C158.353 216.53 160.014 215.15 161.832 215.209L299.73 219.39C301.686 219.454 303.089 220.941 302.884 223.026Z" fill="url(#paint25_linear_353_782)"/>
<path opacity="0.1" d="M297.574 266.739C297.243 266.595 296.885 266.509 296.507 266.492L158.756 260.421C156.937 260.341 155.259 262.087 155.012 264.12L152.277 286.476C152.262 286.619 152.251 286.758 152.251 286.901C150.853 286.408 149.964 284.765 150.175 283.03L152.909 260.674C153.157 258.641 154.833 256.895 156.653 256.975L294.404 263.046C296.244 263.133 297.579 264.809 297.574 266.739Z" fill="url(#paint26_linear_353_782)"/>
<path d="M258.132 326.765C258.538 323.401 256.361 320.302 253.266 320.107L181.999 315.637C179.048 315.452 176.322 318.168 175.921 321.443L172.98 345.657C172.578 348.938 174.626 352.077 177.576 352.297L248.806 357.621C251.899 357.852 254.748 354.999 255.156 351.63L258.132 326.765Z" fill="url(#paint27_linear_353_782)"/>
<path d="M263.514 163.627C262.575 171.368 258.935 178.354 253.759 183.493C248.181 189.035 240.834 192.408 233.194 192.246C225.591 192.086 219.192 188.458 215.083 182.792C211.294 177.57 209.437 170.612 210.367 163.002C212.301 147.169 225.619 134.37 240.232 134.408C254.985 134.443 265.465 147.524 263.514 163.627Z" fill="url(#paint28_linear_353_782)"/>
<path d="M249.304 154.829C248.461 161.764 242.601 167.321 236.238 167.238C229.902 167.155 225.465 161.506 226.303 154.621C227.143 147.738 232.943 142.185 239.283 142.217C245.65 142.249 250.146 147.894 249.304 154.829Z" fill="white"/>
<path d="M253.76 183.493C248.182 189.036 240.835 192.408 233.195 192.246C225.592 192.086 219.193 188.458 215.084 182.793C219.787 175.636 227.544 170.876 235.781 170.993C244.063 171.109 250.738 176.123 253.76 183.493Z" fill="white"/>
<path opacity="0.4" d="M329.511 120.33L298.001 382.68C297.485 386.976 293.587 390.17 289.593 389.835L195.573 381.949C191.107 376.954 187.428 370.96 184.804 363.766C183.515 360.239 182.571 356.433 181.944 352.43C180.199 341.352 180.875 328.76 183.42 316.399C185.378 306.884 188.447 297.491 192.375 289.015C195.518 282.238 199.213 276.042 203.34 270.835C206.311 267.087 209.525 263.446 212.915 259.876C217.002 255.566 221.346 251.36 225.828 247.192C236.27 237.473 247.451 227.971 257.803 217.937C281.69 194.791 301.069 168.928 296.405 132.025C296.256 130.862 294.801 121.961 292.941 112.734L322.923 112.644C326.938 112.633 330.023 116.075 329.511 120.33Z" fill="white"/>
<defs>
<linearGradient id="paint0_linear_353_782" x1="286.289" y1="336.842" x2="416.326" y2="15.3264" gradientUnits="userSpaceOnUse">
<stop offset="0.00359712" stop-color="#E38DDD"/>
<stop offset="1" stop-color="#9571F6"/>
</linearGradient>
<linearGradient id="paint1_linear_353_782" x1="203.732" y1="304.362" x2="420.047" y2="304.362" gradientUnits="userSpaceOnUse">
<stop stop-color="#FF9085"/>
<stop offset="1" stop-color="#FB6FBB"/>
</linearGradient>
<linearGradient id="paint2_linear_353_782" x1="259.244" y1="248.658" x2="323.216" y2="255.047" gradientUnits="userSpaceOnUse">
<stop stop-color="#444B8C"/>
<stop offset="0.9964" stop-color="#26264F"/>
</linearGradient>
<linearGradient id="paint3_linear_353_782" x1="202.985" y1="72.8489" x2="388.525" y2="651.11" gradientUnits="userSpaceOnUse">
<stop stop-color="#444B8C"/>
<stop offset="0.9964" stop-color="#26264F"/>
</linearGradient>
<linearGradient id="paint4_linear_353_782" x1="262.148" y1="58.3868" x2="478.538" y2="594.903" gradientUnits="userSpaceOnUse">
<stop stop-color="#FFC444"/>
<stop offset="0.9964" stop-color="#F36F56"/>
</linearGradient>
<linearGradient id="paint5_linear_353_782" x1="-1359" y1="1585.78" x2="-1221.61" y2="1467.17" gradientUnits="userSpaceOnUse">
<stop stop-color="#311944"/>
<stop offset="1" stop-color="#893976"/>
</linearGradient>
<linearGradient id="paint6_linear_353_782" x1="38.8929" y1="143.557" x2="148.623" y2="52.3969" gradientUnits="userSpaceOnUse">
<stop stop-color="#FF9085"/>
<stop offset="1" stop-color="#FB6FBB"/>
</linearGradient>
<linearGradient id="paint7_linear_353_782" x1="141.94" y1="231.221" x2="119.975" y2="251.688" gradientUnits="userSpaceOnUse">
<stop stop-color="#FFC444"/>
<stop offset="0.9964" stop-color="#F36F56"/>
</linearGradient>
<linearGradient id="paint8_linear_353_782" x1="91.982" y1="444.078" x2="92.1847" y2="394.365" gradientUnits="userSpaceOnUse">
<stop stop-color="#AA80F9"/>
<stop offset="0.9964" stop-color="#6165D7"/>
</linearGradient>
<linearGradient id="paint9_linear_353_782" x1="87.4741" y1="460.054" x2="84.8925" y2="434.407" gradientUnits="userSpaceOnUse">
<stop stop-color="#FFC444"/>
<stop offset="0.9964" stop-color="#F36F56"/>
</linearGradient>
<linearGradient id="paint10_linear_353_782" x1="65.1506" y1="443.969" x2="65.3532" y2="394.256" gradientUnits="userSpaceOnUse">
<stop stop-color="#AA80F9"/>
<stop offset="0.9964" stop-color="#6165D7"/>
</linearGradient>
<linearGradient id="paint11_linear_353_782" x1="60.2807" y1="462.79" x2="57.6992" y2="437.143" gradientUnits="userSpaceOnUse">
<stop stop-color="#FFC444"/>
<stop offset="0.9964" stop-color="#F36F56"/>
</linearGradient>
<linearGradient id="paint12_linear_353_782" x1="86.6512" y1="330.616" x2="66.8874" y2="423.117" gradientUnits="userSpaceOnUse">
<stop stop-color="#311944"/>
<stop offset="1" stop-color="#893976"/>
</linearGradient>
<linearGradient id="paint13_linear_353_782" x1="94.9757" y1="376.17" x2="69.8876" y2="378.011" gradientUnits="userSpaceOnUse">
<stop stop-color="#311944"/>
<stop offset="1" stop-color="#893976"/>
</linearGradient>
<linearGradient id="paint14_linear_353_782" x1="81.1135" y1="381.32" x2="43.0274" y2="384.114" gradientUnits="userSpaceOnUse">
<stop stop-color="#311944"/>
<stop offset="1" stop-color="#893976"/>
</linearGradient>
<linearGradient id="paint15_linear_353_782" x1="111.166" y1="244.148" x2="77.7319" y2="440.719" gradientUnits="userSpaceOnUse">
<stop stop-color="#AA80F9"/>
<stop offset="0.9964" stop-color="#6165D7"/>
</linearGradient>
<linearGradient id="paint16_linear_353_782" x1="51.2984" y1="460.9" x2="35.071" y2="659.981" gradientUnits="userSpaceOnUse">
<stop stop-color="#AA80F9"/>
<stop offset="0.9964" stop-color="#6165D7"/>
</linearGradient>
<linearGradient id="paint17_linear_353_782" x1="5.01087" y1="392.947" x2="90.4713" y2="258.935" gradientUnits="userSpaceOnUse">
<stop stop-color="#AA80F9"/>
<stop offset="0.9964" stop-color="#6165D7"/>
</linearGradient>
<linearGradient id="paint18_linear_353_782" x1="31.648" y1="295.738" x2="49.3469" y2="317.625" gradientUnits="userSpaceOnUse">
<stop stop-color="#FFC444"/>
<stop offset="0.9964" stop-color="#F36F56"/>
</linearGradient>
<linearGradient id="paint19_linear_353_782" x1="18.0353" y1="458.188" x2="1.80788" y2="657.27" gradientUnits="userSpaceOnUse">
<stop stop-color="#AA80F9"/>
<stop offset="0.9964" stop-color="#6165D7"/>
</linearGradient>
<linearGradient id="paint20_linear_353_782" x1="76.6516" y1="237.466" x2="59.7307" y2="218.192" gradientUnits="userSpaceOnUse">
<stop stop-color="#FFC444"/>
<stop offset="0.9964" stop-color="#F36F56"/>
</linearGradient>
<linearGradient id="paint21_linear_353_782" x1="65.0508" y1="229.85" x2="74.544" y2="201.26" gradientUnits="userSpaceOnUse">
<stop stop-color="#444B8C"/>
<stop offset="0.9964" stop-color="#3E4177"/>
</linearGradient>
<linearGradient id="paint22_linear_353_782" x1="85.6729" y1="219.71" x2="62.3028" y2="210.187" gradientUnits="userSpaceOnUse">
<stop stop-color="#FFC444"/>
<stop offset="0.9964" stop-color="#F36F56"/>
</linearGradient>
<linearGradient id="paint23_linear_353_782" x1="127.698" y1="254.015" x2="332.764" y2="254.015" gradientUnits="userSpaceOnUse">
<stop stop-color="#311944"/>
<stop offset="1" stop-color="#893976"/>
</linearGradient>
<linearGradient id="paint24_linear_353_782" x1="252.371" y1="694.585" x2="223.214" y2="232.234" gradientUnits="userSpaceOnUse">
<stop offset="0.003597" stop-color="#F36F56"/>
<stop offset="1" stop-color="#FFC444"/>
</linearGradient>
<linearGradient id="paint25_linear_353_782" x1="155.361" y1="229.655" x2="302.904" y2="229.655" gradientUnits="userSpaceOnUse">
<stop offset="0.003597" stop-color="#F36F56"/>
<stop offset="1" stop-color="#FFC444"/>
</linearGradient>
<linearGradient id="paint26_linear_353_782" x1="150.145" y1="271.938" x2="297.574" y2="271.938" gradientUnits="userSpaceOnUse">
<stop offset="0.003597" stop-color="#F36F56"/>
<stop offset="1" stop-color="#FFC444"/>
</linearGradient>
<linearGradient id="paint27_linear_353_782" x1="222.61" y1="287.55" x2="183.469" y2="514.778" gradientUnits="userSpaceOnUse">
<stop offset="0.003597" stop-color="#F36F56"/>
<stop offset="1" stop-color="#FFC444"/>
</linearGradient>
<linearGradient id="paint28_linear_353_782" x1="233.451" y1="49.8549" x2="241.847" y2="278.748" gradientUnits="userSpaceOnUse">
<stop offset="0.003597" stop-color="#F36F56"/>
<stop offset="1" stop-color="#FFC444"/>
</linearGradient>
</defs>
</svg>
